<?xml version="1.0" encoding="utf-8"?>
<!-- Generator: Adobe Illustrator 27.2.0, SVG Export Plug-In . SVG Version: 6.00 Build 0)  -->
<svg version="1.1" xmlns="http://www.w3.org/2000/svg" xmlns:xlink="http://www.w3.org/1999/xlink" x="0px" y="0px"
	 viewBox="0 0 231 250.5" style="enable-background:new 0 0 231 250.5;" xml:space="preserve">
<style type="text/css">
	.st0{fill:#FFFFFF;}
	.st1{stroke:#000000;stroke-width:3;stroke-linejoin:round;stroke-miterlimit:10;}
	.st2{fill:none;stroke:#FFFFFF;stroke-width:6;stroke-miterlimit:10;}
</style>
<g id="Layer_1">
	<g>
		<path class="st0" d="M131.3,204.3c-7.4,0-13.1-1.4-18-4.4c-7.2-4.4-11.9-10.7-14-18.5l0-0.2c-0.4-1.5-1.1-4.1-5.1-4.1
			c-0.2,0-0.3,0-0.5,0c-4.2,0-8.5,0-12.7,0l-17.1,0c-9.5,0-19.8,0-30.4,0.1l-0.6,0c-16.4,0-28-12.7-29.8-25.1c0-1.7,0-17.1,0-28.5
			l0-10.5c0.3-1.7,0.7-3.1,1.2-4.7l0.2-0.5c3.9-12,15-20,27.7-20c15.6,0,31.3,0,46.9,0l68.8,0c9,0,15.8-5.1,17.7-13.3l0-0.2l0-0.2
			c0.5-3.9,0.5-6.6,0.4-10.2c0.1-3.3-1.9-5-4-5.2c-14.7-2.1-22.9-11.8-23.2-27.5c0.1-16.7,0.1-17.1,0-25.2c2.4,0.1,4.9,0.1,8,0.1
			c1.8,0,3.7,0,5.5,0c1.8,0,3.6,0,5.5,0c10.8,0,15.9,2.1,23.4,9.7l2.2,2.2l2.1-2.2c7.8-8,13.7-9.7,20.7-9.7c1.5,0,2.9,0,4.4,0l8.9,0
			c2.8,0,5.7,0,8.5,0c-0.1,5.7-0.1,11.5,0,17.1c0,3,0,6.1,0,9.1c0,13.1-9.8,24.5-22.7,26.3c-4.6,0.7-4.5,4.2-4.5,5.4
			c0,4.6,0,9.2,0.1,13.7c0.1,11.9,0.1,24.2-0.1,36.2c-0.6,26.9-13.2,46.3-37.4,57.8c-7.6,3.6-14.4,5.1-22.8,5.1c-0.8,0-1.7,0-2.5,0
			l-0.3,0c-1,0-2.5,0.1-3.6,1.3c-1.3,1.3-1.3,3.2-1.3,3.8c0.1,4.1,0,8.2,0,12.2c0,3.3,0,6.6,0,9.8
			C132.3,204.2,131.8,204.3,131.3,204.3z"/>
		<path d="M224.9,9.3c0,4.7,0,9.4,0,14c0,3.1,0,6.1,0,9.2c0,11.7-8.7,21.7-20.1,23.4c-2.1,0.3-7.1,1.7-7.1,8.4c0,4.6,0,9.2,0.1,13.8
			c0.1,11.9,0.1,24.1-0.1,36.2c-0.3,12.9-3.4,24-9.3,33.1c-5.9,9.1-14.8,16.5-26.4,22c-7.2,3.4-13.5,4.8-21.5,4.8
			c-0.8,0-1.6,0-2.5,0c-0.1,0-0.3,0-0.4,0c-2.4,0-4.3,0.7-5.8,2.2c-2.2,2.2-2.2,5.1-2.1,6c0.1,4,0,8.2,0,12.2c0,2.2,0,4.5,0,6.8
			c-6.1-0.2-10.8-1.4-14.9-3.9c-6.6-4.1-10.8-9.5-12.7-16.7l0-0.2c-0.4-1.6-1.7-6.4-8-6.4c-0.2,0-0.4,0-0.6,0c-4.3,0-8.5,0-12.8,0
			l-8.5,0l-8.4,0c-9.6,0-19.9,0-30.5,0.1l0,0l0,0c-0.2,0-0.3,0-0.5,0c-6.6,0-13-2.5-18.1-6.9c-4.7-4.1-7.9-9.7-8.7-15.4
			c0-2.4,0-17.2,0-28.2l0-10.3c0.2-1.4,0.6-2.5,1.1-4l0.2-0.5c3.5-10.7,13.5-18,24.8-18c15.6,0,31.3,0,46.9,0l19.2,0l19.2,0
			c10.1,0,20.2,0,30.4,0c10.5,0,18.4-6,20.7-15.6l0.1-0.3l0-0.3c0.5-4,0.5-6.9,0.4-10.5c0.1-4.9-3.2-7.8-6.7-8.2
			c-13.2-1.9-20.3-10.3-20.5-24.5c0.1-14.4,0.1-16.7,0-22.1c1.5,0,3.2,0,5,0c1.8,0,3.7,0,5.5,0c1.8,0,3.6,0,5.5,0
			c10.1,0,14.2,1.7,21.2,8.8l4.3,4.4l4.3-4.4c7.1-7.3,12.2-8.8,18.6-8.8c1.4,0,2.9,0,4.3,0c1.5,0,3,0,4.4,0c1.5,0,3,0,4.4,0
			C221.5,9.3,223.3,9.3,224.9,9.3 M137.9,3.3c-1.9,0-2.2,0.7-2.2,2.5c0.1,8.6,0.1,8.6,0,25.7c0.3,17.9,10.4,28.3,25.8,30.4
			c1,0.1,1.5,0.8,1.4,2.2c0.1,3.7,0.1,6.2-0.3,9.8c-1.6,6.9-7.2,11-14.8,11c-10.1,0-20.2,0-30.4,0c-12.8,0-25.6,0-38.4,0
			c-15.6,0-31.3,0-46.9,0c-13.9,0-26.2,8.9-30.5,22.1c-0.6,1.9-1.2,3.6-1.6,5.8c0,13.1,0,39.2,0,39.5c2,14.7,15.7,27.8,32.8,27.8
			c0.2,0,0.4,0,0.6,0c10.2-0.1,20.4-0.1,30.5-0.1c5.6,0,11.2,0,16.8,0c4.3,0,8.6,0,12.9,0c0.2,0,0.3,0,0.5,0c1.8,0,1.8,0.5,2.3,2.1
			c2.3,8.8,7.6,15.5,15.4,20.3c6.1,3.7,12.7,4.8,19.5,4.8c0.9,0,1.7,0,2.6,0c1.6-0.1,2-0.5,2-2c-0.1-7.7,0-15.3-0.1-23
			c0-1.6,0.4-2.1,1.9-2.1c0.1,0,0.1,0,0.2,0c0.9,0,1.8,0,2.6,0c9.3,0,16.4-1.8,24.1-5.4c25.5-12,38.6-32.3,39.1-60.4
			c0.4-16.7,0.1-33.4,0-50.1c0-1.5,0.2-2.2,2-2.4c14.4-2.1,25.2-14.7,25.2-29.3c0-9-0.1-18,0.1-27.1c0-1.8-0.5-2.2-2.1-2.2
			c0,0-0.1,0-0.1,0c-3.1,0-6.2,0-9.3,0c-3,0-5.9,0-8.9,0c-1.5,0-2.9,0-4.4,0c-8.3,0-14.9,2.4-22.9,10.6
			c-8.1-8.2-13.9-10.6-25.5-10.6c0,0,0,0,0,0c-3.7,0-7.3,0-11,0c-2.9,0-5.8,0-8.6-0.1C138.1,3.3,138,3.3,137.9,3.3L137.9,3.3z"/>
	</g>
	<rect id="eye" x="75" y="143" class="st1" width="11.7" height="11.3"/>
</g>
<g id="Layer_2">
	<g>
		<path class="st0" d="M71.4,6C77.3,6,82,7.1,85.8,9.3c9.4,5.5,14.5,20.4,11.2,32.4c-1.8,6.5-12.5,15.1-21.1,22
			c-5.9,4.7-11.5,9.2-15.2,13.5c-5.7-6.1-13.5-9.1-20.5-11.7c-1.2-0.4-2.4-0.9-3.5-1.3L36,63.9c-2.6-1-4.9-1.9-6.2-3.5
			c-1.3-1.6-2-4.3-2.4-6.2c-2.2-9.8-1.4-19.8,2.3-27.5c3-6.2,8.2-11.5,14.8-14.9C50,9,56.5,7.2,64.9,6.4C67.3,6.1,69.4,6,71.4,6
			 M71.4,0c-2.4,0-4.8,0.2-7.1,0.4c-7.7,0.8-15.5,2.4-22.6,6.2s-13.5,9.7-17.4,17.6c-4.5,9.4-5.2,21-2.8,31.4
			c0.7,3.1,1.7,6.3,3.7,8.7c2.4,3,6,4.2,9.3,5.5c7.8,3.1,16.6,5.7,22.2,11.9c2.6,3,3.6,4.4,4.5,4.4c0.8,0,1.4-1.1,2.9-3.3
			c7.5-10.7,35-25.5,38.8-39.4c4-14.7-2.2-32.3-13.9-39.2C83.5,1,77.5,0,71.4,0L71.4,0z"/>
	</g>
	<path class="st2" d="M49.9,14.3c6.5,1.6,7.1,3.4,8.8,6.4c4.2,7.1,6.5,15.6,6.7,23.1c0.4,11.4-3.8,24.3-7.7,35"/>
	<path class="st2" d="M39.4,28.9C43.2,39,57.7,46,65.4,48.2"/>
	<path class="st2" d="M83.4,28.9c1.6,12.5-6.5,25.2-20.8,35.3"/>
	<path class="st2" d="M74.9,15.7c-2.9,2.7-5.1,3.3-8.5,5.2c-0.9,0.5-1.8,1-2.5,1.6c-0.7,0.7-1.8,2.3-1.8,3.3"/>
	<path class="st2" d="M30.4,42.1c5.4,2.5,21.2,3,22.5,0.6"/>
	<g>
		<path class="st0" d="M39.3,237.6l10.8-24.4H55v36.9h-5.1v-27.7l0.3,1.6L41.1,245h-3.6l-9.1-20.4l0.3-2.1v27.7h-5.1v-36.9h4.8
			L39.3,237.6z"/>
		<path class="st0" d="M76.4,250.5c-2.6,0-4.9-0.6-6.8-1.7c-1.9-1.1-3.5-2.7-4.5-4.8c-1.1-2-1.6-4.4-1.6-7.2v-10.5
			c0-2.7,0.5-5.1,1.6-7.2c1.1-2,2.6-3.6,4.5-4.7c1.9-1.1,4.2-1.7,6.8-1.7c2.6,0,4.9,0.6,6.8,1.7c1.9,1.1,3.5,2.7,4.5,4.7
			c1.1,2,1.6,4.4,1.6,7.2v10.5c0,2.7-0.5,5.1-1.6,7.2c-1.1,2-2.6,3.6-4.5,4.8C81.2,249.9,79,250.5,76.4,250.5z M76.4,245.4
			c2.3,0,4.2-0.8,5.6-2.3s2.1-3.5,2.1-6v-10.8c0-2.5-0.7-4.5-2.1-6.1s-3.3-2.3-5.6-2.3c-2.3,0-4.2,0.8-5.6,2.3
			c-1.4,1.5-2.1,3.5-2.1,6.1v10.8c0,2.5,0.7,4.5,2.1,6C72.2,244.6,74.1,245.4,76.4,245.4z"/>
		<path class="st0" d="M97.2,250.1v-36.9h5.2v36.9H97.2z M100.2,250.1v-4.8h10c2.7,0,4.7-0.5,5.8-1.6s1.7-2.4,1.7-4.1v-0.1
			c0-1.8-0.5-3.3-1.5-4.4c-1-1.1-2.6-1.6-4.8-1.6h-11.3v-4.7h11.3c1.9,0,3.4-0.5,4.3-1.4c1-0.9,1.5-2.2,1.5-4c0-1.8-0.5-3.2-1.6-4.1
			c-1.1-0.9-2.7-1.4-4.9-1.4h-10.6v-4.8h11.5c3.6,0,6.3,0.9,8.1,2.7s2.7,4.2,2.7,7.3c0,1.8-0.5,3.5-1.6,5.1
			c-1.1,1.5-2.8,2.5-5.1,2.9c2.3,0.3,4.1,1.3,5.3,3c1.3,1.7,1.9,3.6,1.9,5.8v0.1c0,3-1,5.4-2.9,7.3c-1.9,1.8-4.6,2.8-7.9,2.8H100.2z
			"/>
		<path class="st0" d="M135.9,213.2v36.9h-5.2v-36.9H135.9z"/>
		<path class="st0" d="M145.1,250.1v-36.9h5.2v36.9H145.1z M148.6,250.1v-4.9h8.4c2.7,0,4.8-0.7,6.3-2.1s2.2-3.4,2.2-6v-10.9
			c0-2.6-0.7-4.6-2.2-6s-3.6-2.1-6.3-2.1h-8.4v-4.9h8.2c4.5,0,7.9,1.2,10.4,3.5s3.7,5.6,3.7,9.8v10.5c0,2.8-0.5,5.2-1.7,7.1
			s-2.7,3.5-4.8,4.5s-4.6,1.6-7.6,1.6H148.6z"/>
		<path class="st0" d="M183.9,213.2v36.9h-5.2v-36.9H183.9z"/>
		<path class="st0" d="M205.1,250.5c-2.6,0-4.8-0.6-6.8-1.7s-3.4-2.7-4.5-4.8s-1.6-4.5-1.6-7.2v-10.1c0-2.8,0.5-5.2,1.6-7.3
			s2.6-3.7,4.5-4.8s4.2-1.7,6.8-1.7c2.1,0,4.1,0.5,5.9,1.4s3.2,2.2,4.4,3.8s2,3.6,2.4,5.8h-5.3c-0.3-1.2-0.9-2.2-1.6-3.1
			s-1.6-1.6-2.7-2.1s-2.1-0.7-3.1-0.7c-2.3,0-4.1,0.8-5.5,2.4s-2.1,3.7-2.1,6.3v10.1c0,2.6,0.7,4.7,2.1,6.3s3.2,2.4,5.5,2.4
			c1.6,0,3.1-0.5,4.5-1.5s2.4-2.5,2.9-4.4h5.3c-0.4,2.2-1.2,4.1-2.4,5.8s-2.7,2.9-4.4,3.8S207.2,250.5,205.1,250.5z"/>
	</g>
</g>
</svg>
